<svg xmlns="http://www.w3.org/2000/svg" width="174" height="119" viewBox="0 0 174 119" fill="none"><path fill-rule="evenodd" clip-rule="evenodd" d="M46.9912 44.3767C46.9912 44.1643 47.6994 44.1643 47.6994 44.3767C47.4634 44.3767 47.2273 44.3767 46.9912 44.3767Z" fill="#6F7772"></path><path fill-rule="evenodd" clip-rule="evenodd" d="M114.981 49.8972C114.509 49.8972 114.509 50.5342 114.273 50.7465C113.328 53.2945 111.912 56.0547 109.551 57.3287C108.371 57.9657 106.954 57.9657 106.01 57.1164C104.83 56.2671 104.83 54.5684 104.593 52.8698C107.426 52.8698 110.495 50.5342 109.787 47.5616C109.551 46.4999 108.371 45.6506 106.954 45.6506C106.482 45.6506 105.774 45.6506 105.302 45.6506C100.344 46.0753 101.052 52.0205 98.2194 54.3561C97.9834 54.7808 97.5112 54.9931 97.0391 55.4177C96.0948 55.8424 95.3865 56.4794 94.2062 56.6917C94.2062 55.4177 94.4422 54.3561 94.4422 52.8698C93.9701 52.4451 93.0258 50.7465 91.8454 50.7465C90.665 50.9588 91.3732 54.7808 90.665 55.4177C88.0682 55.6301 87.1239 54.1438 86.8878 52.0205C86.6517 51.8081 86.6517 50.9588 86.8878 50.5342C87.1239 48.6232 87.596 47.1369 88.5403 45.6506C89.0125 44.8013 89.9568 43.952 91.1372 43.7396C93.0258 43.7396 93.734 45.0136 93.734 46.7123C93.734 47.3492 93.4979 48.4109 94.4422 48.4109C95.1505 48.1986 95.1505 46.0753 95.1505 45.6506C94.6783 43.1027 90.4289 41.8287 87.596 43.1027C84.7631 44.3766 82.4024 47.7739 82.6385 51.5958C82.6385 52.0205 83.1106 52.6575 82.8745 53.2945C82.8745 54.1438 82.4024 54.9931 82.1663 56.0547C81.9302 56.6917 81.4581 57.7534 81.222 58.6027C80.7498 59.6643 79.5695 62.8493 77.9169 62.6369C77.2087 62.6369 76.7366 60.9383 76.7366 59.6643C76.5005 55.2054 78.3891 52.2328 77.6809 47.9862C77.4448 46.2876 75.5562 44.8013 73.1954 45.0136C70.5986 46.7123 69.1821 49.4725 67.7657 52.2328C67.5296 50.7465 68.4739 49.0479 68.4739 47.7739C68.2378 47.1369 66.3492 45.6506 65.4049 45.8629C64.2245 46.0753 64.2245 48.6232 63.9885 49.8972C63.5163 53.0821 62.572 55.8424 61.3916 58.3903C60.6834 59.2397 59.7391 61.1506 58.3227 60.9383C57.1423 60.9383 57.1423 58.178 56.9062 57.1164C56.9062 56.2671 56.9062 55.2054 56.9062 54.3561C56.6701 52.8698 57.6144 51.3835 57.1423 49.8972C56.9062 48.8355 55.2537 47.9862 54.0733 47.7739C53.3651 47.9862 53.3651 49.0479 53.3651 50.1095C53.129 50.5342 53.3651 51.1712 53.129 51.5958C52.6568 54.1438 52.1847 56.6917 49.3518 57.1164C49.1157 56.6917 49.1157 56.0547 49.1157 55.4177C48.8796 55.4177 48.8796 54.7808 49.1157 54.5684C49.1157 53.2944 49.1157 51.8081 49.3518 50.3218C49.5878 47.5616 50.7682 44.8013 47.6992 44.3766C47.6992 44.1643 46.991 44.1643 46.991 44.3766H46.7549C44.8663 45.226 45.3385 47.9862 44.8663 49.8972C44.1581 52.0205 42.0334 52.8698 39.4366 52.2328C39.4366 51.5958 39.9087 50.9588 39.9087 50.1095C39.9087 49.8972 39.9087 49.6849 39.9087 49.4725C39.6727 46.7123 37.7841 43.315 34.2429 43.7396C33.0625 43.952 31.41 45.226 31.6461 46.9246C28.8132 47.1369 28.5771 50.3218 27.8689 53.2945C27.3967 55.6301 26.4524 57.9657 25.036 59.0273C23.6195 59.8766 21.7309 59.8766 20.7866 58.815C20.5505 58.3903 20.3145 58.178 19.8423 57.9657C18.4259 56.4794 17.0094 54.7808 15.829 53.0821C17.2455 49.0479 18.898 45.0136 19.8423 40.5547C22.2031 39.9177 25.272 39.0684 25.7442 37.1575C26.4524 35.4588 25.272 33.5479 24.0917 32.9109C23.6195 32.6985 22.6752 32.4862 21.7309 32.6985C18.4259 33.5479 16.7733 37.1575 15.5929 39.4931C12.2879 39.9177 10.6354 38.4314 9.45498 36.7328C9.2189 36.3081 8.98283 35.0342 8.2746 35.2465C7.3303 35.2465 7.80245 36.5205 8.03852 37.1575C9.2189 38.8561 11.1075 40.767 13.7043 40.9794C13.9404 41.1917 14.8847 40.767 15.1208 41.1917C14.1765 44.589 12.76 47.9862 11.3436 50.9588C6.62207 48.1986 0.484099 51.1712 0.0119476 55.6301C-0.224128 59.452 3.08093 61.7876 6.14992 62.4246C6.38599 62.4246 6.62207 62.4246 7.09422 62.4246C11.1075 61.5753 12.2879 58.6027 14.1765 55.8424C15.1208 57.1164 16.3012 58.6027 17.7176 59.6643C19.6062 60.9383 23.1474 62.2123 25.272 60.726C26.9246 59.452 27.6328 57.3287 28.5771 55.6301C29.0493 57.3287 29.9936 59.2397 32.3543 59.2397C36.1315 59.452 38.0201 56.2671 38.9644 53.5068C39.2005 53.5068 39.4366 53.5068 39.6727 53.5068C39.9087 53.5068 40.3809 53.5068 40.3809 53.5068C42.5056 53.5068 43.686 52.8698 44.6303 52.0205C44.8663 52.2328 44.6303 53.0821 44.6303 53.2945C44.8663 56.4794 45.5746 59.2397 49.1157 58.815C51.2404 58.3903 52.4208 56.4794 53.3651 55.4177C53.6011 58.3903 54.3094 61.9999 57.1423 62.4246C58.7948 62.4246 59.7391 61.7876 60.4473 61.1506C62.3359 59.6643 63.0442 57.1164 63.9885 54.9931C64.2245 55.8424 64.4606 57.1164 65.4049 57.541C67.5296 58.3903 68.71 56.904 68.0018 55.2054C69.1821 52.6575 70.1264 49.8972 71.779 47.7739C72.2511 47.1369 72.9594 46.2876 73.9037 46.0753C74.1397 47.7739 73.6676 49.4725 73.1954 50.9588C72.7233 54.3561 72.9594 58.6027 73.9037 61.363C74.3758 62.6369 75.084 64.5479 76.2644 64.9725C77.4448 65.1849 78.3891 64.7602 79.0973 64.3356C81.6941 62.4246 82.6385 58.3903 83.5827 55.2054C84.7631 56.0547 85.7074 56.904 87.596 56.6917C88.0682 56.6917 88.3043 56.6917 88.7764 56.6917C89.2486 56.904 89.9568 56.6917 90.4289 56.6917C90.1929 57.541 90.4289 58.178 90.1929 58.815C89.7207 59.452 88.5403 59.452 88.3043 60.089C87.8321 60.5136 87.596 60.726 87.36 60.9383C85.2353 63.0616 83.5827 65.3972 83.1106 68.7945C83.1106 69.2191 83.1106 69.6438 83.1106 70.0684C83.3467 72.4041 84.5271 73.678 87.1239 73.8904C87.36 73.8904 87.8321 73.8904 88.0682 73.8904C89.4846 73.8904 90.665 73.041 91.3732 72.1917C93.4979 69.2191 93.0258 62.2123 93.9701 58.3903C96.803 57.3287 98.9277 55.6301 100.344 53.9314C100.344 57.3287 101.997 59.2397 105.774 59.2397C106.01 59.2397 106.246 59.2397 106.482 59.2397C111.44 59.0273 114.037 55.2054 115.217 51.5958C115.217 51.1712 115.689 50.1095 114.981 49.8972ZM21.2588 36.3081C21.967 34.8218 23.6195 32.9109 24.3277 35.4588C24.5638 35.4588 24.5638 36.0958 24.3277 36.3081C23.8556 38.0068 22.2031 38.8561 20.3145 39.2807C20.3145 38.4314 20.7866 37.3698 21.2588 36.3081ZM6.85814 59.0273C6.14992 59.6643 5.20561 60.089 4.02523 59.8766C2.60878 59.452 1.90055 58.178 1.4284 56.904C1.4284 56.6917 1.4284 56.0547 1.4284 55.8424C1.90055 53.2945 3.55308 51.1712 6.14992 51.1712C8.03852 50.9588 9.45498 51.8081 10.8714 52.6575C10.1632 54.5684 8.74675 57.541 6.85814 59.0273ZM35.4233 56.904C33.5347 58.3903 32.8265 55.4177 32.8265 53.5068C32.5904 53.2945 32.5904 52.8698 32.5904 52.6575C32.5904 52.4451 32.5904 52.2328 32.5904 52.0205C32.5904 51.8081 32.5904 51.1712 32.8265 51.1712C32.8265 50.1095 32.8265 49.0479 32.5904 48.4109C34.0069 50.3218 35.4233 52.2328 37.7841 53.0821C37.3119 54.3561 36.6037 56.0547 35.4233 56.904ZM38.4923 50.3218C38.4923 50.7465 38.2562 51.1712 38.2562 51.8081C36.6037 50.9588 34.0069 48.8355 34.0069 46.2876C34.0069 45.226 34.7151 44.3766 35.8955 44.8013C37.548 45.4383 38.2562 47.3492 38.4923 49.0479C38.7284 49.2602 38.7284 50.1095 38.4923 50.3218ZM89.7207 62.8493C89.7207 63.2739 89.7207 63.4862 89.7207 63.6986C89.7207 63.9109 89.9568 64.1232 89.7207 64.3356C89.4846 67.5205 89.2486 70.7054 87.36 72.6164C85.4714 72.6164 84.5271 71.5547 84.5271 69.8561C84.5271 66.0342 87.596 63.0616 89.4846 60.9383C89.4846 60.726 89.7207 60.726 89.9568 60.5136C89.9568 60.726 89.9568 61.1506 89.9568 61.1506C89.9568 61.363 89.9568 61.7876 89.9568 61.9999C89.7207 62.4246 89.9568 62.8493 89.7207 62.8493ZM105.302 49.0479C105.538 47.9862 106.482 46.0753 107.662 47.1369C108.135 47.3492 108.371 47.9862 108.371 48.4109C108.371 49.8972 106.718 52.0205 104.593 51.8081C104.83 50.7465 104.83 49.8972 105.302 49.0479Z" fill="#FEFEFE"></path><path d="M31.6475 0.849365H42.2709C45.812 0.849365 48.1727 1.06169 50.0614 1.48635C51.7139 1.91101 53.1303 2.97266 54.0746 4.24663C55.255 5.73293 55.7272 8.06855 55.7272 11.2535C55.7272 13.3768 55.4911 14.8631 54.5468 15.7124C53.8386 16.5617 52.4221 17.1987 50.2974 17.6234C52.6582 18.2603 54.3107 19.1097 55.255 20.1713C55.9632 21.4453 56.4354 23.1439 56.4354 25.4795V28.8768C56.4354 31.4247 56.1993 33.3357 55.4911 34.6097C55.0189 35.6713 53.8386 36.5206 52.6582 36.9453C51.2417 37.37 48.4088 37.5823 43.9234 37.5823H31.6475V0.849365ZM42.2709 7.00691V15.2877C42.743 15.2877 43.2152 15.2877 43.4512 15.2877C44.3955 15.2877 45.1038 15.0754 45.3398 14.6507C45.812 14.0138 45.812 12.7398 45.812 10.6165C45.812 9.34252 45.812 8.70554 45.5759 8.06855C45.3398 7.64389 44.8677 7.43156 44.6316 7.21923C44.1595 7.21923 43.4512 7.00691 42.2709 7.00691ZM42.2709 21.0206V31.4247C43.9234 31.2124 44.8677 31.0001 45.3398 30.7878C45.5759 30.3631 45.812 29.3014 45.812 27.8151V24.4179C45.812 22.9316 45.5759 21.8699 45.3398 21.6576C44.8677 21.2329 43.9234 21.0206 42.2709 21.0206Z" fill="#8CCBBA"></path><path d="M78.8623 0.849365L84.7642 37.5823H73.9047L73.4326 31.0001H69.6554L68.9471 37.5823H57.8516L63.2813 0.849365H78.8623ZM73.1965 24.4179C72.4883 20.3836 72.0161 15.0754 71.544 8.91787C70.3636 16.1371 69.6554 21.233 69.4193 24.4179H73.1965Z" fill="#8CCBBA"></path><path d="M111.203 14.4384H100.343V11.0411C100.343 8.91782 100.343 7.64384 100.107 7.00686C99.8713 6.5822 99.3992 6.15754 98.6909 6.15754C97.9827 6.15754 97.5106 6.36987 97.2745 7.00686C97.0384 7.43151 97.0384 8.49316 97.0384 10.4041V28.0274C97.0384 29.7261 97.0384 30.7877 97.2745 31.4247C97.5106 31.8493 97.9827 32.274 98.6909 32.274C99.6352 32.274 100.107 31.8493 100.343 31.2124C100.58 30.7877 100.816 29.5137 100.816 27.8151V23.3562H98.6909V17.8356H111.203V37.5822H104.357L103.412 35.0343C102.704 36.0959 101.76 36.9452 100.58 37.5822C99.6352 38.2192 98.2188 38.4315 96.8023 38.4315C94.9137 38.4315 93.2612 38.0069 91.8448 37.1576C90.1922 36.5206 89.0119 35.4589 88.0676 34.3973C87.3593 33.1233 86.8872 32.0617 86.6511 30.7877C86.415 29.5137 86.415 27.6028 86.415 25.0548V14.0137C86.415 10.6164 86.6511 8.0685 86.8872 6.36987C87.3593 4.88357 88.5397 3.39726 90.6644 1.91096C92.553 0.636987 95.1498 0 98.4549 0C101.524 0 104.121 0.636987 106.245 1.69863C108.134 2.97261 109.55 4.24658 110.259 5.94521C110.731 7.43151 111.203 9.76713 111.203 12.7397V14.4384Z" fill="#8CCBBA"></path><path d="M115.218 0.849365H132.924V8.06855H125.841V15.0754H132.451V22.0823H125.841V30.3631H133.632V37.5823H115.218V0.849365Z" fill="#8CCBBA"></path><path d="M147.559 0.849365V30.3631H153.933V37.5823H136.699V0.849365H147.559Z" fill="#8CCBBA"></path><path d="M7.09431 80.8972C7.80254 80.4726 8.03861 81.1095 8.51076 81.5342C10.3994 83.8698 12.7601 86.4178 15.1209 88.5411C15.8291 89.178 16.7734 89.815 17.4816 90.6643C31.8823 102.342 49.1158 111.685 75.0841 113.171C75.3202 113.171 75.7924 112.959 75.7924 113.171C76.0284 113.171 76.5006 113.171 76.7367 113.171C77.2088 113.171 77.917 113.171 78.3892 113.171C79.3335 113.171 80.2778 113.171 80.986 113.171C81.2221 113.171 81.6943 113.171 81.9303 113.171C82.1664 113.171 82.4025 113.171 82.6386 113.171C83.1107 113.171 83.3468 113.171 83.8189 113.171C83.8189 112.959 84.2911 113.171 84.5272 113.171C110.023 111.685 127.021 102.767 141.421 91.089C141.657 90.6643 142.366 90.452 142.838 90.0274C143.074 89.6027 143.31 89.3904 143.782 89.178C144.254 88.7534 144.49 88.3287 144.963 87.9041C155.35 77.7123 164.321 64.9725 167.862 48.4109C167.862 47.7739 168.098 46.9246 168.57 47.1369C169.042 47.3492 168.806 47.3492 168.806 47.7739C168.098 52.0205 166.682 56.0547 165.265 59.6643C160.544 71.1301 153.697 80.8972 144.963 88.9657C144.963 89.178 144.726 89.178 144.49 89.3904C144.018 89.815 143.546 90.2397 143.074 90.6643C142.838 90.8767 142.838 91.089 142.602 91.089C127.965 103.192 110.259 112.534 83.8189 113.808C83.8189 114.021 83.3468 114.021 82.8746 114.021C82.4025 114.021 81.9303 114.021 81.4582 114.021C80.5139 114.021 79.0974 114.021 78.1531 114.021C77.681 114.021 77.2088 114.021 76.7367 114.021C76.2645 114.021 75.7924 114.021 75.5563 113.808C75.3202 113.808 75.0841 113.808 74.8481 113.808C74.612 113.808 74.1398 114.021 74.1398 113.808C48.4076 112.11 31.174 102.767 16.7734 90.8767C16.0652 90.452 15.357 89.815 14.6487 89.178C12.288 87.0547 9.92722 84.5068 7.80254 81.9589C7.56646 81.7465 7.09431 81.3219 7.09431 80.8972ZM148.74 91.5137C148.504 91.9383 148.268 92.1506 147.795 92.363C147.559 92.7876 147.087 93 146.851 93.4246C131.27 106.377 112.384 116.568 84.055 118.055C83.8189 118.267 83.3468 118.055 82.8746 118.055C82.4025 118.055 81.9303 118.055 81.4582 118.055C80.5139 118.267 78.8613 118.267 77.917 118.055C77.681 118.055 77.4449 118.055 77.4449 118.055C76.7367 118.055 76.0284 118.267 75.5563 118.055C47.2272 116.568 28.5772 106.589 12.9962 93.8493C12.5241 93.2123 11.8158 92.5753 11.3437 92.1506C10.8715 91.9383 10.6354 91.726 10.3994 91.3013C7.80254 88.9657 5.2057 85.9931 2.84495 83.2328C2.60887 82.8082 2.13672 82.3835 2.13672 81.9589C3.08102 81.7465 3.3171 81.5342 3.78925 82.1712C4.96963 83.2328 5.91393 84.7191 7.09431 85.9931C8.51076 87.4794 10.1633 89.178 11.8158 90.6643C12.0519 90.8767 12.288 91.3013 12.7601 91.5137C12.9962 91.9383 13.4684 92.1506 13.7044 92.5753C14.1766 92.7876 14.4127 93 14.6487 93.4246C29.7576 105.74 48.1715 115.295 75.3202 116.781C75.5563 116.781 76.2645 116.568 76.2645 116.781C76.5006 116.781 76.5006 116.781 76.7367 116.781C76.9727 116.781 77.4449 116.781 77.681 116.781C79.0974 116.781 80.5139 116.781 81.6943 116.781C82.1664 116.781 82.6386 116.781 83.1107 116.781C83.3468 116.568 83.8189 116.781 84.055 116.781C111.204 115.295 129.382 105.74 144.49 93.6369C144.726 93.2123 144.963 93 145.199 92.7876C145.907 92.363 146.615 91.726 147.087 91.089C147.323 90.8767 147.559 90.6643 147.795 90.452C158.419 80.4726 166.209 68.5821 170.695 53.2945C171.403 51.1712 171.875 48.8355 172.583 46.7123C173.056 46.4999 173.528 46.4999 174 46.2876C170.223 65.6095 160.78 79.8356 148.74 91.5137Z" fill="#FEFEFE"></path><path fill-rule="evenodd" clip-rule="evenodd" d="M46.9912 44.3767C46.9912 44.1643 47.6994 44.1643 47.6994 44.3767C47.4634 44.3767 47.2273 44.3767 46.9912 44.3767Z" fill="#6F7772"></path><path fill-rule="evenodd" clip-rule="evenodd" d="M114.981 49.8972C114.509 49.8972 114.509 50.5342 114.273 50.7465C113.328 53.2945 111.912 56.0547 109.551 57.3287C108.371 57.9657 106.954 57.9657 106.01 57.1164C104.83 56.2671 104.83 54.5684 104.593 52.8698C107.426 52.8698 110.495 50.5342 109.787 47.5616C109.551 46.4999 108.371 45.6506 106.954 45.6506C106.482 45.6506 105.774 45.6506 105.302 45.6506C100.344 46.0753 101.052 52.0205 98.2194 54.3561C97.9834 54.7808 97.5112 54.9931 97.0391 55.4177C96.0948 55.8424 95.3865 56.4794 94.2062 56.6917C94.2062 55.4177 94.4422 54.3561 94.4422 52.8698C93.9701 52.4451 93.0258 50.7465 91.8454 50.7465C90.665 50.9588 91.3732 54.7808 90.665 55.4177C88.0682 55.6301 87.1239 54.1438 86.8878 52.0205C86.6517 51.8081 86.6517 50.9588 86.8878 50.5342C87.1239 48.6232 87.596 47.1369 88.5403 45.6506C89.0125 44.8013 89.9568 43.952 91.1372 43.7396C93.0258 43.7396 93.734 45.0136 93.734 46.7123C93.734 47.3492 93.4979 48.4109 94.4422 48.4109C95.1505 48.1986 95.1505 46.0753 95.1505 45.6506C94.6783 43.1027 90.4289 41.8287 87.596 43.1027C84.7631 44.3766 82.4024 47.7739 82.6385 51.5958C82.6385 52.0205 83.1106 52.6575 82.8745 53.2945C82.8745 54.1438 82.4024 54.9931 82.1663 56.0547C81.9302 56.6917 81.4581 57.7534 81.222 58.6027C80.7498 59.6643 79.5695 62.8493 77.9169 62.6369C77.2087 62.6369 76.7366 60.9383 76.7366 59.6643C76.5005 55.2054 78.3891 52.2328 77.6809 47.9862C77.4448 46.2876 75.5562 44.8013 73.1954 45.0136C70.5986 46.7123 69.1821 49.4725 67.7657 52.2328C67.5296 50.7465 68.4739 49.0479 68.4739 47.7739C68.2378 47.1369 66.3492 45.6506 65.4049 45.8629C64.2245 46.0753 64.2245 48.6232 63.9885 49.8972C63.5163 53.0821 62.572 55.8424 61.3916 58.3903C60.6834 59.2397 59.7391 61.1506 58.3227 60.9383C57.1423 60.9383 57.1423 58.178 56.9062 57.1164C56.9062 56.2671 56.9062 55.2054 56.9062 54.3561C56.6701 52.8698 57.6144 51.3835 57.1423 49.8972C56.9062 48.8355 55.2537 47.9862 54.0733 47.7739C53.3651 47.9862 53.3651 49.0479 53.3651 50.1095C53.129 50.5342 53.3651 51.1712 53.129 51.5958C52.6568 54.1438 52.1847 56.6917 49.3518 57.1164C49.1157 56.6917 49.1157 56.0547 49.1157 55.4177C48.8796 55.4177 48.8796 54.7808 49.1157 54.5684C49.1157 53.2944 49.1157 51.8081 49.3518 50.3218C49.5878 47.5616 50.7682 44.8013 47.6992 44.3766C47.6992 44.1643 46.991 44.1643 46.991 44.3766H46.7549C44.8663 45.226 45.3385 47.9862 44.8663 49.8972C44.1581 52.0205 42.0334 52.8698 39.4366 52.2328C39.4366 51.5958 39.9087 50.9588 39.9087 50.1095C39.9087 49.8972 39.9087 49.6849 39.9087 49.4725C39.6727 46.7123 37.7841 43.315 34.2429 43.7396C33.0625 43.952 31.41 45.226 31.6461 46.9246C28.8132 47.1369 28.5771 50.3218 27.8689 53.2945C27.3967 55.6301 26.4524 57.9657 25.036 59.0273C23.6195 59.8766 21.7309 59.8766 20.7866 58.815C20.5505 58.3903 20.3145 58.178 19.8423 57.9657C18.4259 56.4794 17.0094 54.7808 15.829 53.0821C17.2455 49.0479 18.898 45.0136 19.8423 40.5547C22.2031 39.9177 25.272 39.0684 25.7442 37.1575C26.4524 35.4588 25.272 33.5479 24.0917 32.9109C23.6195 32.6985 22.6752 32.4862 21.7309 32.6985C18.4259 33.5479 16.7733 37.1575 15.5929 39.4931C12.2879 39.9177 10.6354 38.4314 9.45498 36.7328C9.2189 36.3081 8.98283 35.0342 8.2746 35.2465C7.3303 35.2465 7.80245 36.5205 8.03852 37.1575C9.2189 38.8561 11.1075 40.767 13.7043 40.9794C13.9404 41.1917 14.8847 40.767 15.1208 41.1917C14.1765 44.589 12.76 47.9862 11.3436 50.9588C6.62207 48.1986 0.484099 51.1712 0.0119476 55.6301C-0.224128 59.452 3.08093 61.7876 6.14992 62.4246C6.38599 62.4246 6.62207 62.4246 7.09422 62.4246C11.1075 61.5753 12.2879 58.6027 14.1765 55.8424C15.1208 57.1164 16.3012 58.6027 17.7176 59.6643C19.6062 60.9383 23.1474 62.2123 25.272 60.726C26.9246 59.452 27.6328 57.3287 28.5771 55.6301C29.0493 57.3287 29.9936 59.2397 32.3543 59.2397C36.1315 59.452 38.0201 56.2671 38.9644 53.5068C39.2005 53.5068 39.4366 53.5068 39.6727 53.5068C39.9087 53.5068 40.3809 53.5068 40.3809 53.5068C42.5056 53.5068 43.686 52.8698 44.6303 52.0205C44.8663 52.2328 44.6303 53.0821 44.6303 53.2945C44.8663 56.4794 45.5746 59.2397 49.1157 58.815C51.2404 58.3903 52.4208 56.4794 53.3651 55.4177C53.6011 58.3903 54.3094 61.9999 57.1423 62.4246C58.7948 62.4246 59.7391 61.7876 60.4473 61.1506C62.3359 59.6643 63.0442 57.1164 63.9885 54.9931C64.2245 55.8424 64.4606 57.1164 65.4049 57.541C67.5296 58.3903 68.71 56.904 68.0018 55.2054C69.1821 52.6575 70.1264 49.8972 71.779 47.7739C72.2511 47.1369 72.9594 46.2876 73.9037 46.0753C74.1397 47.7739 73.6676 49.4725 73.1954 50.9588C72.7233 54.3561 72.9594 58.6027 73.9037 61.363C74.3758 62.6369 75.084 64.5479 76.2644 64.9725C77.4448 65.1849 78.3891 64.7602 79.0973 64.3356C81.6941 62.4246 82.6385 58.3903 83.5827 55.2054C84.7631 56.0547 85.7074 56.904 87.596 56.6917C88.0682 56.6917 88.3043 56.6917 88.7764 56.6917C89.2486 56.904 89.9568 56.6917 90.4289 56.6917C90.1929 57.541 90.4289 58.178 90.1929 58.815C89.7207 59.452 88.5403 59.452 88.3043 60.089C87.8321 60.5136 87.596 60.726 87.36 60.9383C85.2353 63.0616 83.5827 65.3972 83.1106 68.7945C83.1106 69.2191 83.1106 69.6438 83.1106 70.0684C83.3467 72.4041 84.5271 73.678 87.1239 73.8904C87.36 73.8904 87.8321 73.8904 88.0682 73.8904C89.4846 73.8904 90.665 73.041 91.3732 72.1917C93.4979 69.2191 93.0258 62.2123 93.9701 58.3903C96.803 57.3287 98.9277 55.6301 100.344 53.9314C100.344 57.3287 101.997 59.2397 105.774 59.2397C106.01 59.2397 106.246 59.2397 106.482 59.2397C111.44 59.0273 114.037 55.2054 115.217 51.5958C115.217 51.1712 115.689 50.1095 114.981 49.8972ZM21.2588 36.3081C21.967 34.8218 23.6195 32.9109 24.3277 35.4588C24.5638 35.4588 24.5638 36.0958 24.3277 36.3081C23.8556 38.0068 22.2031 38.8561 20.3145 39.2807C20.3145 38.4314 20.7866 37.3698 21.2588 36.3081ZM6.85814 59.0273C6.14992 59.6643 5.20561 60.089 4.02523 59.8766C2.60878 59.452 1.90055 58.178 1.4284 56.904C1.4284 56.6917 1.4284 56.0547 1.4284 55.8424C1.90055 53.2945 3.55308 51.1712 6.14992 51.1712C8.03852 50.9588 9.45498 51.8081 10.8714 52.6575C10.1632 54.5684 8.74675 57.541 6.85814 59.0273ZM35.4233 56.904C33.5347 58.3903 32.8265 55.4177 32.8265 53.5068C32.5904 53.2945 32.5904 52.8698 32.5904 52.6575C32.5904 52.4451 32.5904 52.2328 32.5904 52.0205C32.5904 51.8081 32.5904 51.1712 32.8265 51.1712C32.8265 50.1095 32.8265 49.0479 32.5904 48.4109C34.0069 50.3218 35.4233 52.2328 37.7841 53.0821C37.3119 54.3561 36.6037 56.0547 35.4233 56.904ZM38.4923 50.3218C38.4923 50.7465 38.2562 51.1712 38.2562 51.8081C36.6037 50.9588 34.0069 48.8355 34.0069 46.2876C34.0069 45.226 34.7151 44.3766 35.8955 44.8013C37.548 45.4383 38.2562 47.3492 38.4923 49.0479C38.7284 49.2602 38.7284 50.1095 38.4923 50.3218ZM89.7207 62.8493C89.7207 63.2739 89.7207 63.4862 89.7207 63.6986C89.7207 63.9109 89.9568 64.1232 89.7207 64.3356C89.4846 67.5205 89.2486 70.7054 87.36 72.6164C85.4714 72.6164 84.5271 71.5547 84.5271 69.8561C84.5271 66.0342 87.596 63.0616 89.4846 60.9383C89.4846 60.726 89.7207 60.726 89.9568 60.5136C89.9568 60.726 89.9568 61.1506 89.9568 61.1506C89.9568 61.363 89.9568 61.7876 89.9568 61.9999C89.7207 62.4246 89.9568 62.8493 89.7207 62.8493ZM105.302 49.0479C105.538 47.9862 106.482 46.0753 107.662 47.1369C108.135 47.3492 108.371 47.9862 108.371 48.4109C108.371 49.8972 106.718 52.0205 104.593 51.8081C104.83 50.7465 104.83 49.8972 105.302 49.0479Z" fill="#FEFEFE"></path><path d="M31.6475 0.849365H42.2709C45.812 0.849365 48.1727 1.06169 50.0614 1.48635C51.7139 1.91101 53.1303 2.97266 54.0746 4.24663C55.255 5.73293 55.7272 8.06855 55.7272 11.2535C55.7272 13.3768 55.4911 14.8631 54.5468 15.7124C53.8386 16.5617 52.4221 17.1987 50.2974 17.6234C52.6582 18.2603 54.3107 19.1097 55.255 20.1713C55.9632 21.4453 56.4354 23.1439 56.4354 25.4795V28.8768C56.4354 31.4247 56.1993 33.3357 55.4911 34.6097C55.0189 35.6713 53.8386 36.5206 52.6582 36.9453C51.2417 37.37 48.4088 37.5823 43.9234 37.5823H31.6475V0.849365ZM42.2709 7.00691V15.2877C42.743 15.2877 43.2152 15.2877 43.4512 15.2877C44.3955 15.2877 45.1038 15.0754 45.3398 14.6507C45.812 14.0138 45.812 12.7398 45.812 10.6165C45.812 9.34252 45.812 8.70554 45.5759 8.06855C45.3398 7.64389 44.8677 7.43156 44.6316 7.21923C44.1595 7.21923 43.4512 7.00691 42.2709 7.00691ZM42.2709 21.0206V31.4247C43.9234 31.2124 44.8677 31.0001 45.3398 30.7878C45.5759 30.3631 45.812 29.3014 45.812 27.8151V24.4179C45.812 22.9316 45.5759 21.8699 45.3398 21.6576C44.8677 21.2329 43.9234 21.0206 42.2709 21.0206Z" fill="#8CCBBA"></path><path d="M78.8623 0.849365L84.7642 37.5823H73.9047L73.4326 31.0001H69.6554L68.9471 37.5823H57.8516L63.2813 0.849365H78.8623ZM73.1965 24.4179C72.4883 20.3836 72.0161 15.0754 71.544 8.91787C70.3636 16.1371 69.6554 21.233 69.4193 24.4179H73.1965Z" fill="#8CCBBA"></path><path d="M111.203 14.4384H100.343V11.0411C100.343 8.91782 100.343 7.64384 100.107 7.00686C99.8713 6.5822 99.3992 6.15754 98.6909 6.15754C97.9827 6.15754 97.5106 6.36987 97.2745 7.00686C97.0384 7.43151 97.0384 8.49316 97.0384 10.4041V28.0274C97.0384 29.7261 97.0384 30.7877 97.2745 31.4247C97.5106 31.8493 97.9827 32.274 98.6909 32.274C99.6352 32.274 100.107 31.8493 100.343 31.2124C100.58 30.7877 100.816 29.5137 100.816 27.8151V23.3562H98.6909V17.8356H111.203V37.5822H104.357L103.412 35.0343C102.704 36.0959 101.76 36.9452 100.58 37.5822C99.6352 38.2192 98.2188 38.4315 96.8023 38.4315C94.9137 38.4315 93.2612 38.0069 91.8448 37.1576C90.1922 36.5206 89.0119 35.4589 88.0676 34.3973C87.3593 33.1233 86.8872 32.0617 86.6511 30.7877C86.415 29.5137 86.415 27.6028 86.415 25.0548V14.0137C86.415 10.6164 86.6511 8.0685 86.8872 6.36987C87.3593 4.88357 88.5397 3.39726 90.6644 1.91096C92.553 0.636987 95.1498 0 98.4549 0C101.524 0 104.121 0.636987 106.245 1.69863C108.134 2.97261 109.55 4.24658 110.259 5.94521C110.731 7.43151 111.203 9.76713 111.203 12.7397V14.4384Z" fill="#8CCBBA"></path><path d="M115.218 0.849365H132.924V8.06855H125.841V15.0754H132.451V22.0823H125.841V30.3631H133.632V37.5823H115.218V0.849365Z" fill="#8CCBBA"></path><path d="M147.559 0.849365V30.3631H153.933V37.5823H136.699V0.849365H147.559Z" fill="#8CCBBA"></path><path d="M7.09431 80.8972C7.80254 80.4726 8.03861 81.1095 8.51076 81.5342C10.3994 83.8698 12.7601 86.4178 15.1209 88.5411C15.8291 89.178 16.7734 89.815 17.4816 90.6643C31.8823 102.342 49.1158 111.685 75.0841 113.171C75.3202 113.171 75.7924 112.959 75.7924 113.171C76.0284 113.171 76.5006 113.171 76.7367 113.171C77.2088 113.171 77.917 113.171 78.3892 113.171C79.3335 113.171 80.2778 113.171 80.986 113.171C81.2221 113.171 81.6943 113.171 81.9303 113.171C82.1664 113.171 82.4025 113.171 82.6386 113.171C83.1107 113.171 83.3468 113.171 83.8189 113.171C83.8189 112.959 84.2911 113.171 84.5272 113.171C110.023 111.685 127.021 102.767 141.421 91.089C141.657 90.6643 142.366 90.452 142.838 90.0274C143.074 89.6027 143.31 89.3904 143.782 89.178C144.254 88.7534 144.49 88.3287 144.963 87.9041C155.35 77.7123 164.321 64.9725 167.862 48.4109C167.862 47.7739 168.098 46.9246 168.57 47.1369C169.042 47.3492 168.806 47.3492 168.806 47.7739C168.098 52.0205 166.682 56.0547 165.265 59.6643C160.544 71.1301 153.697 80.8972 144.963 88.9657C144.963 89.178 144.726 89.178 144.49 89.3904C144.018 89.815 143.546 90.2397 143.074 90.6643C142.838 90.8767 142.838 91.089 142.602 91.089C127.965 103.192 110.259 112.534 83.8189 113.808C83.8189 114.021 83.3468 114.021 82.8746 114.021C82.4025 114.021 81.9303 114.021 81.4582 114.021C80.5139 114.021 79.0974 114.021 78.1531 114.021C77.681 114.021 77.2088 114.021 76.7367 114.021C76.2645 114.021 75.7924 114.021 75.5563 113.808C75.3202 113.808 75.0841 113.808 74.8481 113.808C74.612 113.808 74.1398 114.021 74.1398 113.808C48.4076 112.11 31.174 102.767 16.7734 90.8767C16.0652 90.452 15.357 89.815 14.6487 89.178C12.288 87.0547 9.92722 84.5068 7.80254 81.9589C7.56646 81.7465 7.09431 81.3219 7.09431 80.8972ZM148.74 91.5137C148.504 91.9383 148.268 92.1506 147.795 92.363C147.559 92.7876 147.087 93 146.851 93.4246C131.27 106.377 112.384 116.568 84.055 118.055C83.8189 118.267 83.3468 118.055 82.8746 118.055C82.4025 118.055 81.9303 118.055 81.4582 118.055C80.5139 118.267 78.8613 118.267 77.917 118.055C77.681 118.055 77.4449 118.055 77.4449 118.055C76.7367 118.055 76.0284 118.267 75.5563 118.055C47.2272 116.568 28.5772 106.589 12.9962 93.8493C12.5241 93.2123 11.8158 92.5753 11.3437 92.1506C10.8715 91.9383 10.6354 91.726 10.3994 91.3013C7.80254 88.9657 5.2057 85.9931 2.84495 83.2328C2.60887 82.8082 2.13672 82.3835 2.13672 81.9589C3.08102 81.7465 3.3171 81.5342 3.78925 82.1712C4.96963 83.2328 5.91393 84.7191 7.09431 85.9931C8.51076 87.4794 10.1633 89.178 11.8158 90.6643C12.0519 90.8767 12.288 91.3013 12.7601 91.5137C12.9962 91.9383 13.4684 92.1506 13.7044 92.5753C14.1766 92.7876 14.4127 93 14.6487 93.4246C29.7576 105.74 48.1715 115.295 75.3202 116.781C75.5563 116.781 76.2645 116.568 76.2645 116.781C76.5006 116.781 76.5006 116.781 76.7367 116.781C76.9727 116.781 77.4449 116.781 77.681 116.781C79.0974 116.781 80.5139 116.781 81.6943 116.781C82.1664 116.781 82.6386 116.781 83.1107 116.781C83.3468 116.568 83.8189 116.781 84.055 116.781C111.204 115.295 129.382 105.74 144.49 93.6369C144.726 93.2123 144.963 93 145.199 92.7876C145.907 92.363 146.615 91.726 147.087 91.089C147.323 90.8767 147.559 90.6643 147.795 90.452C158.419 80.4726 166.209 68.5821 170.695 53.2945C171.403 51.1712 171.875 48.8355 172.583 46.7123C173.056 46.4999 173.528 46.4999 174 46.2876C170.223 65.6095 160.78 79.8356 148.74 91.5137Z" fill="#FEFEFE"></path></svg>